<svg xmlns="http://www.w3.org/2000/svg"  viewBox="0 0 50 50" width="1600px" height="1600px"><path fill="#ffd54f" d="M45,8H23.1084a3.002,3.002,0,0,0-2.9971,3.1582l1.7901,34A2.9988,2.9988,0,0,0,24.8975,48H45a3.00328,3.00328,0,0,0,3-3V11A3.00328,3.00328,0,0,0,45,8Z"/><path fill="#42a5f5" d="M29.9238,40.6172A.999.999,0,0,0,29,40H22.6846a1.0002,1.0002,0,0,0-.9991,1.0527l.2159,4.1055a2.98131,2.98131,0,0,0,.955,2.0371.99952.99952,0,0,0,1.3877-.0254L29.707,41.707A.99864.99864,0,0,0,29.9238,40.6172Z"/><path fill="#64b5f6" d="M24.2549,4.5332A2.98686,2.98686,0,0,0,21.291,2H5A3.00328,3.00328,0,0,0,2,5V39a3.00328,3.00328,0,0,0,3,3H29a1.00031,1.00031,0,0,0,.9873-1.1562Z"/><path fill="#fafafa" d="M22.9316,30.6377s-1.0647-2.7378-2.3636-6.0779c-2.0317-5.2243-4.6364-11.9221-4.6364-11.9221a1.00584,1.00584,0,0,0-1.8632,0l-7,18a.99979.99979,0,0,0,1.8633.7245L11.0171,26h7.9658l2.0855,5.3623A.99974.99974,0,0,0,22.9316,30.6377ZM11.7949,24,15,15.7588,18.2051,24Z"/><path fill="#fafafa" d="M41.0946,27.653A5.49328,5.49328,0,0,0,37.5,18H33a.99947.99947,0,0,0-1,1V37a.99947.99947,0,0,0,1,1h5.5a5.49841,5.49841,0,0,0,2.5946-10.347ZM34,20h3.5a3.5,3.5,0,0,1,0,7H34Zm4.5,16H34V29h4.5a3.5,3.5,0,0,1,0,7Z"/></svg>