<svg xmlns="http://www.w3.org/2000/svg"  viewBox="0 0 32 32" width="32px" height="32px"><path fill="#FFE6E2" d="M26,32H6c-3.314,0-6-2.686-6-6V6c0-3.314,2.686-6,6-6h20c3.314,0,6,2.686,6,6v20C32,29.314,29.314,32,26,32 z"/><path fill="#FC573B" d="M8,8.001c1.857,6.525,1.679,9.582,4.9,12.136c3.215,2.553,6.265,1.471,7.657,1.321L23.072,24H24 l-2.889-2.918C21.093,19.332,25.058,8,8,8.001L8,8.001z M10.846,9.643L10.846,9.643c2.971,1.411,4.017,3.503,5.149,5.646 c0.814,1.543,2.243,3.893,3.25,4.65c1.007,0.75,2.108,1.304-0.214,0.303c-2.329-1-4.025-3.839-5.15-5.989 c-0.864-1.65-1.607-3.167-3.222-4.282C10.66,9.971,9.071,8.803,10.846,9.643z"/></svg>